<?xml version="1.0" encoding="UTF-8"?>
<svg version="1.1" viewBox="0 0 100 100" xmlns="http://www.w3.org/2000/svg">
  <g>
    <circle cx="50" cy="50" r="50" fill="#4170a2" stroke-width="3" stroke="#fff" />
  </g>
  <path d="m68.561 17.877a0.75606 0.75606 0 0 0-0.52142 0.22451l-2.692 2.6336a3.1432 5.4292 49.555 0 0-5.296 1.7054 3.1432 5.4292 49.555 0 0-2.2576 5.6829l-1.6101 1.5747a3.1432 5.4292 49.555 0 0-4.9908 1.7908 3.1432 5.4292 49.555 0 0-2.0925 5.9142 3.1432 5.4292 49.555 0 0 0.79487 0.54694l-1.4715 7.0708a2.3976 4.1413 55.636 0 0-2.8321 1.0736 2.3976 4.1413 55.636 0 0-2.2096 4.0334c-0.7628 0.71097-1.5098 1.4232-2.2201 2.1367l1.8205-6.1841a2.6623 4.5986 17.869 0 0 3.5921-3.6249 2.6623 4.5986 17.869 0 0-1.01-5.146l0.58184-1.9758a0.75606 0.75606 0 0 0-0.74436-0.98034 0.75606 0.75606 0 0 0-0.70636 0.55318l-0.75584 2.5664a2.6623 4.5986 17.869 0 0-2.4331 3.3488 2.6623 4.5986 17.869 0 0 0.15628 4.3855l-2.7894 9.4728c-0.80479 0.89534-1.5587 1.7896-2.2529 2.6811 0.17794-6.5082 7.0276-15.896 5.461-35.639-4.8773 22.304-13.554 24.689-14.952 41.489-3.8524 2.7626-7.7825 5.9312-9.6985 11.719 20.275-12.173 45.032-13.727 64.253-19.667-12.879-2.1248-33.645 0.52146-43.544 3.105 0.99942-1.2729 2.1345-2.5619 3.3796-3.8589l6.3299-0.5157a2.5063 4.3291 83.467 0 0 4.3828 1.4059 2.5063 4.3291 83.467 0 0 3.8365-2.0758l6.0846-0.4959a0.75656 0.75656 0 1 0-0.12395-1.508l-5.9929 0.4886a2.5063 4.3291 83.467 0 0-4.3745-1.3892 2.5063 4.3291 83.467 0 0-3.8282 2.0586l-4.6781 0.38131c0.59157-0.57756 1.2098-1.1559 1.8377-1.7341a2.3976 4.1413 55.636 0 0 3.3061-1.0725 2.3976 4.1413 55.636 0 0 1.7059-1.6893l8.0581 0.05728a2.7284 4.7126 63.317 0 0 0.1021 0.2594 2.7284 4.7126 63.317 0 0 5.436 0.32191 2.7284 4.7126 63.317 0 0 3.1322-3.4567l3.6598-2.3523a3.1432 5.4292 62.365 0 0 5.6329-0.43132 3.1432 5.4292 62.365 0 0 3.352-5.3028 3.1432 5.4292 62.365 0 0-0.01817-0.03021l4.3798-2.8154a0.75606 0.75606 0 1 0-0.81682-1.272l-4.8208 3.0993a3.1432 5.4292 62.365 0 0-4.9916 0.75216 3.1432 5.4292 62.365 0 0-3.5384 4.7311l-3.2848 2.1123a2.7284 4.7126 63.317 0 0-5.1362 0.08957 2.7284 4.7126 63.317 0 0-2.93 2.7837l-7.6155-0.0552a2.3976 4.1413 55.636 0 0-0.01628-0.54796c0.90273-0.73142 1.8262-1.4569 2.7587-2.1789a2.3979 4.1417 55.636 0 0 4.0001-0.93294 2.3979 4.1417 55.636 0 0 2.2914-3.7421c0.76083-0.5441 1.522-1.0831 2.2826-1.6148a3.1432 5.4292 55.636 0 0 5.3713-1.1715 3.1432 5.4292 55.636 0 0 3.0405-4.5127c0.91242-0.59998 1.7944-1.1768 2.6686-1.745a3.1432 5.4292 55.636 0 0 5.7211-0.98136 3.1432 5.4292 55.636 0 0 3.0337-4.6971c2.1307-1.3999 3.885-2.5915 4.995-3.4728a0.90727 0.90727 0 0 0-0.56726-1.6262 0.90727 0.90727 0 0 0-0.56102 0.20471c-1.0096 0.80164-2.7195 1.9594-4.8356 3.3478a3.1432 5.4292 55.636 0 0-5.6132 1.0543 3.1432 5.4292 55.636 0 0-3.0389 4.5627c-0.86226 0.56147-1.7301 1.1288-2.6305 1.7216a3.1432 5.4292 55.636 0 0-5.7605 0.95482 3.1432 5.4292 55.636 0 0-2.9925 4.964c-0.8283 0.57912-1.6574 1.1681-2.4862 1.7617a2.3979 4.1417 55.636 0 0-3.6254 1.0329 2.3979 4.1417 55.636 0 0-2.3221 3.3806c-0.7455 0.57525-1.483 1.1544-2.2117 1.7372l1.2991-6.2439a3.1432 5.4292 49.555 0 0 3.8649-1.8362 3.1432 5.4292 49.555 0 0 2.2185-5.7381l1.5705-1.5361a3.1432 5.4292 49.555 0 0 5.0692-1.7747 3.1432 5.4292 49.555 0 0 2.357-5.489l2.6097-2.5529a0.75606 0.75606 0 0 0-0.53546-1.3053z" fill="#fff" stroke-width="3.7858"/>
</svg>
